<?xml version="1.0" encoding="utf-8"?>
<svg xmlns="http://www.w3.org/2000/svg" fill="none" height="100%" overflow="visible" preserveAspectRatio="none" style="display: block;" viewBox="0 0 44 44" width="100%">
<g id="img_02">
<rect fill="var(--fill-0, #FF740B)" fill-opacity="0.1" height="44" rx="10" width="44"/>
<rect height="43" rx="9.5" stroke="var(--stroke-0, #FF740B)" stroke-opacity="0.2" width="43" x="0.5" y="0.5"/>
<g id="book-open">
<g id="Vector">
<path d="M21 17C21 16.2044 20.6837 15.4415 20.1211 14.8789C19.5585 14.3163 18.7956 14 18 14H13V27H19C19.7084 27 20.397 27.1889 21 27.5371V17ZM23 31C23 31.5523 22.5523 32 22 32C21.4477 32 21 31.5523 21 31C21 30.4696 20.7891 29.961 20.4141 29.5859C20.039 29.2109 19.5304 29 19 29H12C11.4477 29 11 28.5523 11 28V13C11 12.4477 11.4477 12 12 12H18C19.3261 12 20.5975 12.5272 21.5352 13.4648C22.4728 14.4025 23 15.6739 23 17V31Z" fill="var(--fill-0, #FF740B)"/>
<path d="M21 31V17C21 15.6739 21.5272 14.4025 22.4648 13.4648C23.4025 12.5272 24.6739 12 26 12H32C32.5523 12 33 12.4477 33 13V28C33 28.5523 32.5523 29 32 29H25C24.4696 29 23.961 29.2109 23.5859 29.5859C23.2109 29.961 23 30.4696 23 31C23 31.5523 22.5523 32 22 32C21.4477 32 21 31.5523 21 31ZM23 27.5371C23.603 27.1889 24.2916 27 25 27H31V14H26C25.2044 14 24.4415 14.3163 23.8789 14.8789C23.3163 15.4415 23 16.2044 23 17V27.5371Z" fill="var(--fill-0, #FF740B)"/>
</g>
</g>
</g>
</svg>