<svg width="44" height="44" viewBox="0 0 44 44" fill="none" xmlns="http://www.w3.org/2000/svg">
<rect width="44" height="44" rx="10" fill="#41D7CA" fill-opacity="0.1"/>
<rect x="0.5" y="0.5" width="43" height="43" rx="9.5" stroke="#41D7CA" stroke-opacity="0.2"/>
<g clip-path="url(#clip0_16_1786)">
<path d="M24.5254 12.3503C25.5742 11.95 26.7206 11.8816 27.8096 12.154C28.6746 12.3704 29.47 12.794 30.1299 13.3835C30.9428 13.0849 31.7149 12.6834 32.4239 12.1833C32.7645 11.943 33.218 11.939 33.5626 12.1735C33.9071 12.4081 34.0704 12.832 33.9717 13.237C33.6292 14.6433 32.941 15.9382 31.9756 17.0095C31.9906 17.1714 31.9995 17.334 32.0001 17.4968V17.4997C32.0001 23.5996 29.0631 28.0748 24.8448 30.32C20.6509 32.5523 15.2912 32.5273 10.5147 29.8737C10.11 29.6489 9.91224 29.176 10.0372 28.7302C10.1622 28.2843 10.5774 27.9823 11.0401 28.0007C12.7268 28.0677 14.3959 27.7313 15.9141 27.0319C14.4115 26.1045 13.3294 25.0038 12.5772 23.8161C11.5737 22.2315 11.1946 20.553 11.126 19.0456C11.0577 17.5425 11.2969 16.189 11.5479 15.2185C11.674 14.7309 11.8045 14.3334 11.9053 14.0544C11.9558 13.9148 11.9988 13.8041 12.0303 13.7263C12.0461 13.6874 12.059 13.6567 12.0684 13.6345L12.084 13.5993C12.0845 13.5983 12.0847 13.5972 12.085 13.5964L12.086 13.5944C12.0922 13.5806 12.0987 13.5661 12.1055 13.5524L13.0001 13.9997L13.8184 13.4255C14.7339 14.7291 15.958 15.7864 17.3809 16.5026C18.5127 17.0723 19.7428 17.4111 21.0001 17.5056C20.9928 16.3963 21.3221 15.3106 21.9454 14.3923C22.5759 13.4635 23.4767 12.7506 24.5254 12.3503ZM27.3243 14.0944C26.6327 13.9214 25.9044 13.9642 25.2383 14.2185C24.5725 14.4727 24.001 14.9256 23.6006 15.5153C23.2003 16.1051 22.9906 16.8036 23.0001 17.5163V18.53C23.0001 19.072 22.5682 19.5157 22.0264 19.53C20.1042 19.5798 18.1991 19.1533 16.4815 18.2888C15.3355 17.7119 14.2972 16.9511 13.4044 16.0417C13.2205 16.8433 13.0743 17.8606 13.1241 18.9548C13.1806 20.1971 13.4892 21.5181 14.2667 22.7458C15.0403 23.9673 16.3162 25.1577 18.4063 26.0866C18.7379 26.2341 18.9638 26.5494 18.9962 26.9108C19.0284 27.2725 18.862 27.6239 18.5616 27.8278C17.4513 28.5814 16.2352 29.1475 14.962 29.5144C18.1317 30.3216 21.3076 29.9371 23.9053 28.5544C27.4361 26.675 29.9989 22.9016 30.0001 17.5036L29.9961 17.3405C29.9881 17.1786 29.968 17.0175 29.9376 16.8581C29.8749 16.5302 29.9802 16.1921 30.2178 15.9577C30.4415 15.7372 30.6476 15.5013 30.837 15.2536C30.6097 15.3375 30.3809 15.418 30.1485 15.488C29.7719 15.6014 29.3636 15.483 29.1055 15.1862C28.6377 14.6483 28.0158 14.2675 27.3243 14.0944Z" fill="#41D7CA"/>
</g>
<defs>
<clipPath id="clip0_16_1786">
<rect width="24" height="24" fill="white" transform="translate(10 10)"/>
</clipPath>
</defs>
</svg>
