<svg width="24" height="24" viewBox="0 0 24 24" fill="none" xmlns="http://www.w3.org/2000/svg">
<g clip-path="url(#clip0_16_1796)">
<path d="M14.5254 2.35029C15.5742 1.95 16.7206 1.88155 17.8096 2.154C18.6746 2.37044 19.47 2.79403 20.1299 3.38349C20.9428 3.08492 21.7149 2.68341 22.4239 2.1833C22.7645 1.94305 23.218 1.93902 23.5626 2.17353C23.9071 2.4081 24.0704 2.83201 23.9717 3.23701C23.6292 4.64332 22.941 5.93819 21.9756 7.00947C21.9906 7.1714 21.9995 7.33398 22.0001 7.49678V7.49971C22.0001 13.5996 19.0631 18.0748 14.8448 20.32C10.6509 22.5523 5.29121 22.5273 0.514704 19.8737C0.109956 19.6489 -0.0877643 19.176 0.0371654 18.7302C0.162214 18.2843 0.577374 17.9823 1.0401 18.0007C2.72675 18.0677 4.39588 17.7313 5.91412 17.0319C4.41146 16.1045 3.32941 15.0038 2.5772 13.8161C1.57366 12.2315 1.19458 10.553 1.12603 9.0456C1.05771 7.54248 1.29691 6.18899 1.54791 5.21846C1.67401 4.73087 1.80447 4.33336 1.90533 4.05439C1.9558 3.9148 1.99881 3.80408 2.03033 3.72627C2.04606 3.68744 2.05897 3.65668 2.06842 3.63447L2.08404 3.59932C2.08448 3.59832 2.08467 3.59717 2.08502 3.59639L2.08599 3.59443C2.09215 3.58057 2.0987 3.5661 2.10552 3.55244L3.00006 3.99971L3.81842 3.42549C4.73395 4.7291 5.958 5.78644 7.38092 6.50264C8.51273 7.07225 9.7428 7.4111 11.0001 7.50557C10.9928 6.39632 11.3221 5.31059 11.9454 4.39228C12.5759 3.46352 13.4767 2.75061 14.5254 2.35029ZM17.3243 4.09443C16.6327 3.92139 15.9044 3.96425 15.2383 4.21846C14.5725 4.47266 14.001 4.92565 13.6006 5.51533C13.2003 6.10508 12.9906 6.80358 13.0001 7.51631V8.52998C13.0001 9.07202 12.5682 9.5157 12.0264 9.52998C10.1042 9.57982 8.19906 9.15326 6.4815 8.28877C5.33545 7.71192 4.2972 6.95108 3.40435 6.0417C3.22048 6.84333 3.07435 7.86064 3.12408 8.95478C3.18058 10.1971 3.48923 11.5181 4.26666 12.7458C5.04025 13.9673 6.31621 15.1577 8.40631 16.0866C8.73791 16.2341 8.9638 16.5494 8.99615 16.9108C9.02845 17.2725 8.862 17.6239 8.56158 17.8278C7.45131 18.5814 6.23523 19.1475 4.96197 19.5144C8.13168 20.3216 11.3076 19.9371 13.9053 18.5544C17.4361 16.675 19.9989 12.9016 20.0001 7.50361L19.9961 7.34053C19.9881 7.17861 19.968 7.01747 19.9376 6.8581C19.8749 6.53024 19.9802 6.1921 20.2178 5.95771C20.4415 5.73716 20.6476 5.50135 20.837 5.25361C20.6097 5.3375 20.3809 5.418 20.1485 5.48799C19.7719 5.60138 19.3636 5.48301 19.1055 5.18623C18.6377 4.64832 18.0158 4.26748 17.3243 4.09443Z" fill="#41D7CA"/>
</g>
<defs>
<clipPath id="clip0_16_1796">
<rect width="24" height="24" fill="white"/>
</clipPath>
</defs>
</svg>
