<?xml version="1.0" encoding="utf-8"?>
<svg xmlns="http://www.w3.org/2000/svg" fill="none" height="100%" overflow="visible" preserveAspectRatio="none" style="display: block;" viewBox="0 0 44 44" width="100%">
<g id="img_01">
<rect fill="var(--fill-0, #01CF80)" fill-opacity="0.1" height="44" rx="10" width="44"/>
<rect height="43" rx="9.5" stroke="var(--stroke-0, #01CF80)" stroke-opacity="0.2" width="43" x="0.5" y="0.5"/>
<g id="smile">
<g id="Vector">
<path d="M31 22C31 17.0294 26.9706 13 22 13C17.0294 13 13 17.0294 13 22C13 26.9706 17.0294 31 22 31C26.9706 31 31 26.9706 31 22ZM33 22C33 28.0751 28.0751 33 22 33C15.9249 33 11 28.0751 11 22C11 15.9249 15.9249 11 22 11C28.0751 11 33 15.9249 33 22Z" fill="var(--fill-0, #01CF80)"/>
<path d="M25.2012 23.3975L25.2002 23.4004C25.5315 22.9586 26.1578 22.869 26.5996 23.2002C27.0414 23.5315 27.131 24.1578 26.7998 24.5996L26 24C26.7839 24.5879 26.7997 24.5991 26.7998 24.5996L26.7979 24.6025C26.797 24.6036 26.7959 24.6051 26.7949 24.6064C26.7929 24.6091 26.7909 24.6126 26.7881 24.6162C26.7825 24.6234 26.7752 24.6327 26.7666 24.6436C26.7494 24.6653 26.7255 24.6937 26.6963 24.7285C26.6376 24.7984 26.5547 24.8938 26.4482 25.0049C26.2362 25.2261 25.926 25.5172 25.5254 25.8086C24.7275 26.3889 23.5255 27 22 27C20.4745 27 19.2725 26.3889 18.4746 25.8086C18.074 25.5172 17.7638 25.2261 17.5518 25.0049C17.4453 24.8938 17.3624 24.7984 17.3037 24.7285C17.2745 24.6937 17.2506 24.6653 17.2334 24.6436C17.2248 24.6327 17.2175 24.6234 17.2119 24.6162C17.2091 24.6126 17.2071 24.6091 17.2051 24.6064C17.2041 24.6051 17.203 24.6036 17.2021 24.6025L17.2002 24.6006C17.2003 24.6 17.2161 24.588 18 24L17.2002 24.6006C16.869 24.1588 16.9586 23.5315 17.4004 23.2002C17.8421 22.869 18.4674 22.9589 18.7988 23.4004L18.7998 23.3994L18.7988 23.3975C18.7996 23.3985 18.8003 23.3995 18.8018 23.4014C18.8077 23.4089 18.8184 23.4236 18.835 23.4434C18.8681 23.4828 18.9221 23.5439 18.9951 23.6201C19.1424 23.7738 19.3638 23.983 19.6504 24.1914C20.2275 24.6111 21.0255 25 22 25C22.9745 25 23.7725 24.6111 24.3496 24.1914C24.6362 23.983 24.8576 23.7738 25.0049 23.6201C25.0779 23.5439 25.1319 23.4828 25.165 23.4434C25.1816 23.4236 25.1923 23.4089 25.1982 23.4014L25.2012 23.3975Z" fill="var(--fill-0, #01CF80)"/>
<path d="M19.0098 18C19.5621 18 20.0098 18.4477 20.0098 19C20.0098 19.5523 19.5621 20 19.0098 20H19C18.4477 20 18 19.5523 18 19C18 18.4477 18.4477 18 19 18H19.0098Z" fill="var(--fill-0, #01CF80)"/>
<path d="M25.0098 18C25.5621 18 26.0098 18.4477 26.0098 19C26.0098 19.5523 25.5621 20 25.0098 20H25C24.4477 20 24 19.5523 24 19C24 18.4477 24.4477 18 25 18H25.0098Z" fill="var(--fill-0, #01CF80)"/>
</g>
</g>
</g>
</svg>