<svg width="44" height="44" viewBox="0 0 44 44" fill="none" xmlns="http://www.w3.org/2000/svg">
<rect width="44" height="44" rx="10" fill="#FFB900" fill-opacity="0.1"/>
<rect x="0.5" y="0.5" width="43" height="43" rx="9.5" stroke="#FFB900" stroke-opacity="0.2"/>
<path d="M27 18C27 17.2044 26.6837 16.4415 26.1211 15.8789C25.5585 15.3163 24.7956 15 24 15H17V21H24C24.7956 21 25.5585 20.6837 26.1211 20.1211C26.6837 19.5585 27 18.7956 27 18ZM29 18C29 19.3261 28.4728 20.5975 27.5352 21.5352C26.5975 22.4728 25.3261 23 24 23H16C15.4477 23 15 22.5523 15 22V14C15 13.4477 15.4477 13 16 13H24C25.3261 13 26.5975 13.5272 27.5352 14.4648C28.4728 15.4025 29 16.6739 29 18Z" fill="#FFB900"/>
<path d="M28 26C28 25.2044 27.6837 24.4415 27.1211 23.8789C26.5585 23.3163 25.7956 23 25 23H17V29H25C25.7956 29 26.5585 28.6837 27.1211 28.1211C27.6837 27.5585 28 26.7956 28 26ZM30 26C30 27.3261 29.4728 28.5975 28.5352 29.5352C27.5975 30.4728 26.3261 31 25 31H16C15.4477 31 15 30.5523 15 30V22C15 21.4477 15.4477 21 16 21H25C26.3261 21 27.5975 21.5272 28.5352 22.4648C29.4728 23.4025 30 24.6739 30 26Z" fill="#FFB900"/>
</svg>
