<svg preserveAspectRatio="none" width="100%" height="100%" overflow="visible" style="display: block;" viewBox="0 0 24 24" fill="none" xmlns="http://www.w3.org/2000/svg">
<g id="film">
<g id="Vector">
<path d="M21 4.17969C20.9998 3.52824 20.4718 3.00017 19.8203 3H4.17969C3.52824 3.00017 3.00017 3.52824 3 4.17969V19.8203C3.00017 20.4718 3.52824 20.9998 4.17969 21H19.8203C20.4718 20.9998 20.9998 20.4718 21 19.8203V4.17969ZM23 19.8203C22.9998 21.5763 21.5763 22.9998 19.8203 23H4.17969C2.42367 22.9998 1.00017 21.5763 1 19.8203V4.17969C1.00017 2.42367 2.42367 1.00017 4.17969 1H19.8203C21.5763 1.00017 22.9998 2.42367 23 4.17969V19.8203Z" fill="var(--fill-0, white)"/>
<path d="M6 22V2C6 1.44772 6.44772 1 7 1C7.55228 1 8 1.44772 8 2V22C8 22.5523 7.55228 23 7 23C6.44772 23 6 22.5523 6 22Z" fill="var(--fill-0, white)"/>
<path d="M16 22V2C16 1.44772 16.4477 1 17 1C17.5523 1 18 1.44772 18 2V22C18 22.5523 17.5523 23 17 23C16.4477 23 16 22.5523 16 22Z" fill="var(--fill-0, white)"/>
<path d="M22 11C22.5523 11 23 11.4477 23 12C23 12.5523 22.5523 13 22 13H2C1.44772 13 1 12.5523 1 12C1 11.4477 1.44772 11 2 11H22Z" fill="var(--fill-0, white)"/>
<path d="M7 6C7.55228 6 8 6.44772 8 7C8 7.55228 7.55228 8 7 8H2C1.44772 8 1 7.55228 1 7C1 6.44772 1.44772 6 2 6H7Z" fill="var(--fill-0, white)"/>
<path d="M7 16C7.55228 16 8 16.4477 8 17C8 17.5523 7.55228 18 7 18H2C1.44772 18 1 17.5523 1 17C1 16.4477 1.44772 16 2 16H7Z" fill="var(--fill-0, white)"/>
<path d="M22 16C22.5523 16 23 16.4477 23 17C23 17.5523 22.5523 18 22 18H17C16.4477 18 16 17.5523 16 17C16 16.4477 16.4477 16 17 16H22Z" fill="var(--fill-0, white)"/>
<path d="M22 6C22.5523 6 23 6.44772 23 7C23 7.55228 22.5523 8 22 8H17C16.4477 8 16 7.55228 16 7C16 6.44772 16.4477 6 17 6H22Z" fill="var(--fill-0, white)"/>
</g>
</g>
</svg>
