<?xml version="1.0" encoding="utf-8"?>
<svg xmlns="http://www.w3.org/2000/svg" fill="none" height="100%" overflow="visible" preserveAspectRatio="none" style="display: block;" viewBox="0 0 44 44" width="100%">
<g id="img_03">
<rect fill="var(--fill-0, #428DFF)" fill-opacity="0.1" height="44" rx="10" width="44"/>
<rect height="43" rx="9.5" stroke="var(--stroke-0, #428DFF)" stroke-opacity="0.2" width="43" x="0.5" y="0.5"/>
<g id="film">
<g id="Vector">
<path d="M31 14.1797C30.9998 13.5282 30.4718 13.0002 29.8203 13H14.1797C13.5282 13.0002 13.0002 13.5282 13 14.1797V29.8203C13.0002 30.4718 13.5282 30.9998 14.1797 31H29.8203C30.4718 30.9998 30.9998 30.4718 31 29.8203V14.1797ZM33 29.8203C32.9998 31.5763 31.5763 32.9998 29.8203 33H14.1797C12.4237 32.9998 11.0002 31.5763 11 29.8203V14.1797C11.0002 12.4237 12.4237 11.0002 14.1797 11H29.8203C31.5763 11.0002 32.9998 12.4237 33 14.1797V29.8203Z" fill="var(--fill-0, #428DFF)"/>
<path d="M16 32V12C16 11.4477 16.4477 11 17 11C17.5523 11 18 11.4477 18 12V32C18 32.5523 17.5523 33 17 33C16.4477 33 16 32.5523 16 32Z" fill="var(--fill-0, #428DFF)"/>
<path d="M26 32V12C26 11.4477 26.4477 11 27 11C27.5523 11 28 11.4477 28 12V32C28 32.5523 27.5523 33 27 33C26.4477 33 26 32.5523 26 32Z" fill="var(--fill-0, #428DFF)"/>
<path d="M32 21C32.5523 21 33 21.4477 33 22C33 22.5523 32.5523 23 32 23H12C11.4477 23 11 22.5523 11 22C11 21.4477 11.4477 21 12 21H32Z" fill="var(--fill-0, #428DFF)"/>
<path d="M17 16C17.5523 16 18 16.4477 18 17C18 17.5523 17.5523 18 17 18H12C11.4477 18 11 17.5523 11 17C11 16.4477 11.4477 16 12 16H17Z" fill="var(--fill-0, #428DFF)"/>
<path d="M17 26C17.5523 26 18 26.4477 18 27C18 27.5523 17.5523 28 17 28H12C11.4477 28 11 27.5523 11 27C11 26.4477 11.4477 26 12 26H17Z" fill="var(--fill-0, #428DFF)"/>
<path d="M32 26C32.5523 26 33 26.4477 33 27C33 27.5523 32.5523 28 32 28H27C26.4477 28 26 27.5523 26 27C26 26.4477 26.4477 26 27 26H32Z" fill="var(--fill-0, #428DFF)"/>
<path d="M32 16C32.5523 16 33 16.4477 33 17C33 17.5523 32.5523 18 32 18H27C26.4477 18 26 17.5523 26 17C26 16.4477 26.4477 16 27 16H32Z" fill="var(--fill-0, #428DFF)"/>
</g>
</g>
</g>
</svg>